<?xml version="1.0" encoding="UTF-8"?><svg xmlns="http://www.w3.org/2000/svg" xmlns:xlink="http://www.w3.org/1999/xlink" version="1.1" id="Layer_1" x="0px" y="0px" viewBox="0 0 48 48" xml:space="preserve"><path d="M23.982 15C19.002 15 15 19.029 15 24s4.002 9 8.982 9S33 28.971 33 24s-4.037-9-9.018-9zM24 29a5 5 0 1 1 .001-10.001A5 5 0 0 1 24 29z" fill="#EF5350"/><path d="M24 5H6.625C5.728 5 5 5.728 5 6.625V24c0 10.493 8.507 19 19 19s19-8.507 19-19S34.493 5 24 5zm0 32c-7.18 0-13-5.82-13-13s5.82-13 13-13 13 5.82 13 13-5.82 13-13 13z" fill="#EF5350"/><metadata><rdf:RDF xmlns:rdf="http://www.w3.org/1999/02/22-rdf-syntax-ns#" xmlns:rdfs="http://www.w3.org/2000/01/rdf-schema#" xmlns:dc="http://purl.org/dc/elements/1.1/"><rdf:Description about="https://iconscout.com/legal#licenses" dc:title="issuu" dc:description="issuu" dc:publisher="Iconscout" dc:date="2017-12-15" dc:format="image/svg+xml" dc:language="en"><dc:creator><rdf:Bag><rdf:li>Icons8</rdf:li></rdf:Bag></dc:creator></rdf:Description></rdf:RDF></metadata></svg>